<svg xmlns="http://www.w3.org/2000/svg" xmlns:xlink="http://www.w3.org/1999/xlink" width="26" height="36"><g fill="none" fill-rule="evenodd" opacity=".602" transform="translate(-667 -5221)"><g fill="#A7A9AC" transform="translate(0 5200)"><g transform="rotate(30 308.028 1276.464)"><path d="M10.244 23.81c-1.582 0-2.771 1.411-2.771 3.038v8.807c0 1.628 1.19 3.049 2.77 3.049h1.33c1.582 0 2.782-1.422 2.782-3.049v-8.807c0-1.628-1.2-3.038-2.781-3.038h-1.33Zm0 1.349h1.33c.729 0 1.4.69 1.4 1.689v8.807c0 .999-.671 1.69-1.4 1.69h-1.33c-.73 0-1.39-.691-1.39-1.69v-8.807c0-.999.66-1.69 1.39-1.69Z"/><path d="M12.954 24.818a.698.698 0 0 0-.467.21l-.681.66h.002a.67.67 0 0 0 0 .96.698.698 0 0 0 .974 0l.67-.66h-.001a.67.67 0 0 0 .163-.755.69.69 0 0 0-.66-.415ZM13.3 27.867a.704.704 0 0 0-.478.21l-.67.66a.673.673 0 0 0 0 .96c.27.266.706.266.974 0l.67-.67a.667.667 0 0 0 .152-.745.69.69 0 0 0-.648-.415ZM13.227 30.917a.689.689 0 0 0-.405.2l-.67.67v-.001a.673.673 0 0 0 0 .96c.27.265.706.265.974 0l.67-.67v.001a.669.669 0 0 0 .143-.784.687.687 0 0 0-.712-.376ZM13.227 33.966a.689.689 0 0 0-.405.2l-.67.67a.672.672 0 0 0-.035.994.7.7 0 0 0 1.009-.044l.67-.66a.669.669 0 0 0 .143-.784.689.689 0 0 0-.712-.376ZM8.853 24.818a.689.689 0 0 0-.651.42.669.669 0 0 0 .165.75l.68.66h-.001c.27.264.706.264.974 0a.67.67 0 0 0 0-.96l-.68-.66h.001a.696.696 0 0 0-.488-.21ZM8.437 27.867a.69.69 0 0 0-.577.454.665.665 0 0 0 .172.706l.67.67a.695.695 0 0 0 .975 0 .673.673 0 0 0 0-.96l-.681-.66a.7.7 0 0 0-.559-.21ZM8.437 30.917a.685.685 0 0 0-.577.452.669.669 0 0 0 .172.708l.67.67v-.001a.695.695 0 0 0 .975 0 .673.673 0 0 0 0-.96l-.681-.67v.001a.697.697 0 0 0-.559-.201v.001ZM8.437 33.966a.685.685 0 0 0-.577.452.668.668 0 0 0 .172.707l.67.66v-.001a.686.686 0 0 0 .493.24.7.7 0 0 0 .516-.194.674.674 0 0 0-.034-.996l-.681-.668a.696.696 0 0 0-.559-.2Z"/><path d="M4.001 7.895a.688.688 0 0 0-.445.2l-2.944 2.9a2.025 2.025 0 0 0-.59 1.74L1.636 23.57v-.002c.018.097.055.19.112.27l2.406 3.558c.152.223.224.482.224.75v2.769c0 .74.629 1.349 1.38 1.349h.345v.002a.7.7 0 0 0 .523-.176.666.666 0 0 0 0-.997.695.695 0 0 0-.523-.178h-.345v-2.77c0-.534-.165-1.064-.468-1.51l-2.313-3.419-1.593-10.676a.68.68 0 0 1 .192-.589l2.527-2.486 5.684 4.198a1.903 1.903 0 0 0 2.253 0l5.684-4.198 2.518 2.488a.684.684 0 0 1 .203.59L18.85 23.218l-2.323 3.42c-.301.445-.457.974-.457 1.51v2.769h-.346a.687.687 0 0 0-.746.673c0 .19.08.37.224.5.14.128.331.19.522.176h.346c.75 0 1.37-.61 1.37-1.35v-2.769c0-.267.082-.526.233-.75l2.406-3.558a.673.673 0 0 0 .112-.27l1.614-10.836a2.015 2.015 0 0 0-.59-1.74l-2.944-2.9v.002a.693.693 0 0 0-.892-.07l-6.161 4.558a.512.512 0 0 1-.609 0L4.448 8.025a.7.7 0 0 0-.446-.13Z"/><path d="M10.945.027C8.58.03 6.186 1.36 5.16 3.925L3.403 8.323l1.279.489 1.757-4.397C7.26 2.36 9.09 1.378 10.945 1.376c1.855-.002 3.682.98 4.486 3.039l1.715 4.397 1.279-.49-1.715-4.397c-1.006-2.574-3.4-3.9-5.765-3.898ZM2.398 10.403l-.843 1.07 4.63 3.548a3.28 3.28 0 0 1 1.288 2.599v2.219l-5.806-3.71-.75 1.13 5.876 3.768c.854.547 2.06-.097 2.06-1.1v-2.31c0-1.43-.67-2.79-1.816-3.667l-4.64-3.545v-.002ZM19.43 10.403l-4.639 3.548a4.629 4.629 0 0 0-1.816 3.668v2.31c0 1.001 1.206 1.645 2.06 1.1l5.877-3.768-.751-1.13-5.806 3.71v-2.22a3.27 3.27 0 0 1 1.279-2.598l4.639-3.548-.843-1.07v-.002Z"/></g></g></g></svg>