<svg xmlns="http://www.w3.org/2000/svg" xmlns:xlink="http://www.w3.org/1999/xlink" xml:space="preserve" id="Layer_1" x="0" y="0" enable-background="new 0 0 52 52" version="1.1" viewBox="0 0 52 52"><style>.st0{fill:#fff}</style><path d="m14.7 46.6-6.3 1.7-4.6-4.6 1.7-6.3 6.3-1.7 4.6 4.6-1.7 6.3zm24.2-26.8c3.5 1.1 7.4.2 10.1-2.5 2.5-2.5 3.4-5.9 2.8-9.1L47.1 13c-1.2 1.2-3.2 1.2-4.4 0L39 9.3c-1.2-1.2-1.2-3.2 0-4.4L43.7.2c-3.2-.6-6.6.3-9 2.8-2.7 2.7-3.6 6.7-2.5 10.1L13 32.3c-3.4-1-7.3-.2-10 2.5-4 3.9-4 10.3 0 14.2 3.9 4 10.3 4 14.2 0 2.7-2.7 3.6-6.6 2.5-10l19.2-19.2z" class="st0"/><path d="m9.6 13.1 10.2 10.1 2.5-2.5-10.2-10.1-2.8-5.2-4.3-3-1.7 1.7-.2.1L1.4 6l3 4.3zM34 27l-7.9 7.9 15.5 15.5c1.4 1.4 3.7 1.4 5.1 0l2.7-2.7c1.4-1.4 1.4-3.7 0-5.1L34 27z" class="st0"/></svg>