<svg xmlns="http://www.w3.org/2000/svg" xmlns:xlink="http://www.w3.org/1999/xlink" width="48" height="50"><g fill="none" fill-rule="evenodd"><g fill="#FFF" transform="translate(-936 -7381)"><path d="M979 7399.174a6.503 6.503 0 0 1 0 12.652v17.674a1.5 1.5 0 1 1-3 0v-17.674a6.503 6.503 0 0 1 0-12.652V7382.5a1.5 1.5 0 1 1 3 0v16.674Zm-17 13a6.503 6.503 0 0 1 0 12.652v4.674a1.5 1.5 0 1 1-3 0v-4.674a6.503 6.503 0 0 1 0-12.652V7382.5a1.5 1.5 0 1 1 3 0v29.674Zm-18-12.348v29.674a1.5 1.5 0 1 1-3 0v-29.674a6.503 6.503 0 0 1 0-12.652v-4.674a1.5 1.5 0 1 1 3 0v4.674a6.503 6.503 0 0 1 0 12.652Zm-1.5-2.826a3.5 3.5 0 1 0 0-7 3.5 3.5 0 0 0 0 7Zm18 25a3.5 3.5 0 1 0 0-7 3.5 3.5 0 0 0 0 7Zm17-13a3.5 3.5 0 1 0 0-7 3.5 3.5 0 0 0 0 7Z"/></g></g></svg>