<svg xmlns="http://www.w3.org/2000/svg" xmlns:xlink="http://www.w3.org/1999/xlink" width="38" height="53"><g fill="none" fill-rule="evenodd"><g fill="#FFF" transform="translate(-616 -7381)"><path d="M629.493 7422.256C621.164 7411.572 617 7403.58 617 7398.28c0-9.543 8.059-17.28 18-17.28s18 7.737 18 17.28c0 5.3-4.164 13.292-12.493 23.976C648.315 7423 654 7425.29 654 7428c0 3.314-8.507 6-19 6s-19-2.686-19-6c0-2.709 5.685-4.999 13.493-5.744Zm8.773 2.815A224.493 224.493 0 0 1 635 7429a224.493 224.493 0 0 1-3.266-3.929c-6.714.298-11.734 1.496-11.734 2.929 0 1.657 6.716 3 15 3 8.284 0 15-1.343 15-3 0-1.433-5.02-2.63-11.734-2.929ZM635 7424c10-11.614 15-20.1 15-25.455 0-8.033-6.716-14.545-15-14.545-8.284 0-15 6.512-15 14.545 0 5.356 5 13.84 15 25.455Zm0-19a7 7 0 1 1 0-14 7 7 0 0 1 0 14Zm0-3a4 4 0 1 0 0-8 4 4 0 0 0 0 8Z"/></g></g></svg>