<svg xmlns="http://www.w3.org/2000/svg" xmlns:xlink="http://www.w3.org/1999/xlink" width="24" height="28"><g fill="none" fill-rule="evenodd" transform="translate(-315 -5225)"><path fill="#A7A9AC" d="M322.482 5246.257c-3.655-5.042-5.482-8.887-5.482-11.537 0-5.368 4.477-9.72 10-9.72s10 4.352 10 9.72c0 2.65-1.827 6.495-5.482 11.537 4.388.52 7.482 1.776 7.482 3.243 0 1.933-5.373 3.5-12 3.5s-12-1.567-12-3.5c0-1.467 3.094-2.723 7.482-3.243Zm3.682 4.738a109.442 109.442 0 0 1-2.323-2.919c-3.975.199-6.841.761-6.841 1.424 0 .786 4.033 1.431 9.164 1.495Zm3.995-2.919c-.718.936-1.492 1.909-2.323 2.919 5.131-.064 9.164-.709 9.164-1.495 0-.663-2.866-1.225-6.84-1.424ZM327 5249c5.333-6.388 8-11.054 8-14a8 8 0 1 0-16 0c0 2.946 2.667 7.612 8 14Zm0-9a5 5 0 1 1 0-10 5 5 0 0 1 0 10Zm-.002-2a3.002 3.002 0 0 0 3.003-3c0-1.657-1.344-3-3.003-3a3.002 3.002 0 0 0-3.003 3c0 1.657 1.344 3 3.003 3Z"/></g></svg>