<svg width="468" height="475" xmlns="http://www.w3.org/2000/svg" xmlns:xlink="http://www.w3.org/1999/xlink"><defs><path d="M242.269 510.743c98.826 20.047 163.236-35.055 198.042-72.082 34.805-37.026 66.855-68.07 76.787-111.305 9.931-43.236-2.698-81.197-23.165-122.14-20.466-40.943-39.811-70.733-86.69-112.565-46.877-41.831-103.309-22.866-140.321-22.866-72.88 0-147.04 32.628-181.496 84.118-34.457 51.491-25.345 165.017 2.624 222.22 27.969 57.202 55.392 114.572 154.219 134.62z" id="a"/><radialGradient fx="50%" fy="50%" r="30.883%" gradientTransform="matrix(0 1 -.99996 0 1 0)" id="b"><stop stop-color="#CD192D" offset="0%"/><stop stop-color="#CD192D" offset="69.022%"/><stop stop-color="#54060F" stop-opacity=".5" offset="100%"/></radialGradient><path d="M255.666 537.318c104.014 21.1 171.806-36.896 208.439-75.866 36.633-38.97 70.365-71.643 80.818-117.149 10.453-45.505-2.84-85.46-24.38-128.551C499 172.66 478.64 141.306 429.302 97.278c-49.34-44.027-108.734-24.066-147.69-24.066-76.705 0-154.758 34.34-191.023 88.534-36.266 54.193-26.675 173.679 2.762 233.884 29.437 60.206 58.3 120.588 162.314 141.688z" id="d"/><radialGradient fx="50%" fy="50%" r="33.483%" id="e"><stop stop-color="#CD192D" offset="0%"/><stop stop-color="#CD192D" offset="78.29%"/><stop stop-color="#54060F" stop-opacity=".5" offset="100%"/></radialGradient></defs><g transform="translate(-74 -62)" fill="none" fill-rule="evenodd"><g transform="translate(16 15)"><mask id="c" fill="#fff"><use xlink:href="#a"/></mask><path d="M287.016 272.396L284.998-67m.386 339.269l23.675-338.57M287.715 272.4l41.362-336.866m-41.97 336.689l64.76-333.16m-62.467 333.6l82.108-329.315m-82.695 329.089L393.692-50.348M291.026 273.176l121.63-316.853M290.46 272.904L433.896-34.693m-143.942 307.21L454.496-24.325m-162.48 297.938L471.87-14.21m-180.323 287.4L491.038-1.39M293.444 274.548l213.59-263.76m-214.02 263.3L524.48 25.87M294.714 275.688L538.855 39.923M294.324 275.196l259.992-218.16m-258.518 219.97L566.85 72.753M295.45 276.485L580.09 91.637m-284.88 184.26l296.843-164.542M296.366 277.927l305.047-148.781M296.18 277.326l314.683-127.14M297.054 279.49L617.96 168.993M296.918 278.877l327.831-87.842M297.5 281.138l331.979-70.564m-332.065 69.944l336.093-47.235m-336.05 46.6l338.57-23.675m-338.372 26.003L637 276.287m-339.25 5.299l338.931 17.763m-339.043-15.43l337.537 35.476m-337.391-36.088l334.24 58.935m-334.66-56.638L628.06 361.95m-330.502-76.943l324.566 99.23m-325.286-97.01l318.927 116.08M297.08 286.651l310.054 138.045M297.44 286.129l299.668 159.337M296.361 288.2l290.92 174.801m-290.52-175.29l278.016 194.67m-279.36-192.76l267.448 208.954M295.854 289.17l252.22 227.1M294.27 290.885l239.989 239.99M294.741 290.472l222.664 256.145M295.293 290.158l204.254 271.054m-206.1-269.625L483.235 572.96M294.02 291.322l169.698 293.925M292.001 292.493l154.083 302.404m-153.492-302.62l132.612 312.416M290.436 293.17l116.08 318.928M291.04 293.003l93.55 326.248m-92.913-326.29l70.564 331.98m-72.84-331.455l53.093 335.217m-52.46-335.207l29.58 338.105M287.71 293.714l11.845 339.19m-11.218-339.127l-11.844 339.19m9.512-339.283l-29.58 338.105m30.198-337.991L233.53 629.015m50.794-335.618l-70.564 331.98m71.17-331.816l-93.55 326.248m94.116-325.962l-116.08 318.928M283.294 293.07L150.682 605.486m133.15-312.085L129.749 595.805M281.753 292.34L112.055 586.265M282.26 292.711L92.472 574.083M280.34 291.384L76.086 562.438m204.727-270.643L58.15 547.94M281.2 292.3L41.21 532.29m238.314-241.617l-252.22 227.1m252.56-226.568L12.418 500.16M278.421 289.37L.404 484.04m278.31-194.113L-12.203 464.728m289.731-176.811L-22.142 447.253m299.916-158.76L-32.28 426.538m310.18-137.42l-318.928 116.08m318.089-118.26l-324.566 99.23m324.64-98.602l-330.698 76.348m330.155-78.62l-334.24 58.936m334.261-58.306l-337.537 35.477m337.3-37.8l-338.93 17.763m338.9-17.136L-63 278.305m339.418 3.59l-338.57-23.676m338.488 24.296l-336.093-47.234m335.884 47.834l-331.98-70.565m332.438 68.274l-327.831-87.842m327.575 88.419L-44.575 170.904m321.662 108.288l-314.682-127.14m314.38 127.691L-28.26 130.962m306.09 146.693L-19.013 113.112m296.497 165.066L-7.158 93.33m284.19 185.297L5.98 74.374m272.429 202.365L18.416 58.58m259.508 218.568L33.784 41.383m245.753 234.076L48.07 27.24m230.954 248.584L65.435 12.064m215.41 262.3L81.355-.213m198.952 274.898L100.453-13.14m181.852 286.62L117.762-23.363m163.98 297.117L138.305-33.842m142.82 307.754L159.499-42.942m123.8 315.996L178.42-49.73m104.257 322.89L200.568-56.155m84.373 328.752l-64.76-333.16m64.134 333.213L242.953-64.216m43.681 336.61L262.96-66.175" stroke="url(#b)" stroke-width="3" stroke-linecap="square" mask="url(#c)"/></g><mask id="f" fill="#fff"><use xlink:href="#d"/></mask><path d="M303.016 287.396L300.998-52m.386 339.269l23.675-338.57M303.715 287.4l41.362-336.866m-41.97 336.689l64.76-333.16m-62.467 333.6l82.108-329.315m-82.695 329.089L409.692-35.348M307.026 288.176l121.63-316.853M306.46 287.904L449.896-19.693m-143.942 307.21L470.496-9.325m-162.48 297.938L487.87.79m-180.323 287.4L507.038 13.61M309.444 289.548l213.59-263.76m-214.02 263.3L540.48 40.87M310.714 290.688L554.855 54.923M310.324 290.196l259.992-218.16m-258.518 219.97L582.85 87.753M311.45 291.485L596.09 106.637m-284.88 184.26l296.843-164.542M312.366 292.927l305.047-148.781M312.18 292.326l314.683-127.14M313.054 294.49L633.96 183.993M312.918 293.877l327.831-87.842M313.5 296.138l331.979-70.564m-332.065 69.944l336.093-47.235m-336.05 46.6l338.57-23.675m-338.372 26.003L653 291.287m-339.25 5.299l338.931 17.763m-339.043-15.43l337.537 35.476m-337.391-36.088l334.24 58.935m-334.66-56.638L644.06 376.95m-330.502-76.943l324.566 99.23m-325.286-97.01l318.927 116.08M313.08 301.651l310.054 138.045M313.44 301.129l299.668 159.337M312.361 303.2l290.92 174.801m-290.52-175.29l278.016 194.67m-279.36-192.76l267.448 208.954M311.854 304.17l252.22 227.1M310.27 305.885l239.989 239.99M310.741 305.472l222.664 256.145M311.293 305.158l204.254 271.054m-206.1-269.625L499.235 587.96M310.02 306.322l169.698 293.925M308.001 307.493l154.083 302.404m-153.492-302.62l132.612 312.416M306.436 308.17l116.08 318.928M307.04 308.003l93.55 326.248m-92.913-326.29l70.564 331.98m-72.84-331.455l53.093 335.217m-52.46-335.207l29.58 338.105M303.71 308.714l11.845 339.19m-11.218-339.127l-11.844 339.19m9.512-339.283l-29.58 338.105m30.198-337.991L249.53 644.015m50.794-335.618l-70.564 331.98m71.17-331.816l-93.55 326.248m94.116-325.962l-116.08 318.928M299.294 308.07L166.682 620.486m133.15-312.085L145.749 610.805M297.753 307.34L128.055 601.265M298.26 307.711L108.472 589.083M296.34 306.384L92.086 577.438m204.727-270.643L74.15 562.94M297.2 307.3L57.21 547.29m238.314-241.617l-252.22 227.1m252.56-226.568L28.418 515.16M294.421 304.37L16.404 499.04m278.31-194.113L3.797 479.728m289.731-176.811L-6.142 462.253m299.916-158.76L-16.28 441.538m310.18-137.42l-318.928 116.08m318.089-118.26l-324.566 99.23m324.64-98.602l-330.698 76.348m330.155-78.62l-334.24 58.936m334.261-58.306l-337.537 35.477m337.3-37.8l-338.93 17.763m338.9-17.136L-47 293.305m339.418 3.59l-338.57-23.676m338.488 24.296l-336.093-47.234m335.884 47.834l-331.98-70.565m332.438 68.274l-327.831-87.842m327.575 88.419L-28.575 185.904m321.662 108.288l-314.682-127.14m314.38 127.691L-12.26 145.962m306.09 146.693L-3.013 128.112m296.497 165.066L8.842 108.33m284.19 185.297L21.98 89.374m272.429 202.365L34.416 73.58m259.508 218.568L49.784 56.383m245.753 234.076L64.07 42.24m230.954 248.584L81.435 27.064m215.41 262.3L97.355 14.787m198.952 274.898L116.453 1.86m181.852 286.62L133.762-8.363m163.98 297.117L154.305-18.842m142.82 307.754L175.499-27.942m123.8 315.996L194.42-34.73m104.257 322.89L216.568-41.155m84.373 328.752l-64.76-333.16m64.134 333.213L258.953-49.216m43.681 336.61L278.96-51.175" stroke="url(#e)" stroke-width="3" stroke-linecap="square" mask="url(#f)"/><circle fill="#000" fill-rule="nonzero" cx="304" cy="299" r="195"/></g></svg>